<mxfile host="app.diagrams.net" modified="2024-03-13T03:11:06.440Z" agent="Mozilla/5.0 (Windows NT 10.0; Win64; x64) AppleWebKit/537.36 (KHTML, like Gecko) Chrome/122.0.0.0 Safari/537.36" etag="fkWQ_ZSP7ObRAkMitIvD" version="24.0.0" type="device">
  <diagram id="C5RBs43oDa-KdzZeNtuy" name="Page-1">
    <mxGraphModel dx="1687" dy="2077" grid="1" gridSize="10" guides="1" tooltips="1" connect="1" arrows="1" fold="1" page="1" pageScale="1" pageWidth="827" pageHeight="1169" math="0" shadow="0">
      <root>
        <mxCell id="WIyWlLk6GJQsqaUBKTNV-0" />
        <mxCell id="WIyWlLk6GJQsqaUBKTNV-1" parent="WIyWlLk6GJQsqaUBKTNV-0" />
        <mxCell id="tVau4BeB1wbIVWH6ao-C-36" value="" style="whiteSpace=wrap;html=1;aspect=fixed;" vertex="1" parent="WIyWlLk6GJQsqaUBKTNV-1">
          <mxGeometry x="10" y="565" width="260" height="260" as="geometry" />
        </mxCell>
        <mxCell id="tVau4BeB1wbIVWH6ao-C-35" value="" style="whiteSpace=wrap;html=1;aspect=fixed;" vertex="1" parent="WIyWlLk6GJQsqaUBKTNV-1">
          <mxGeometry x="10" y="280" width="260" height="260" as="geometry" />
        </mxCell>
        <mxCell id="tVau4BeB1wbIVWH6ao-C-34" value="" style="whiteSpace=wrap;html=1;aspect=fixed;" vertex="1" parent="WIyWlLk6GJQsqaUBKTNV-1">
          <mxGeometry x="10" width="260" height="260" as="geometry" />
        </mxCell>
        <mxCell id="tVau4BeB1wbIVWH6ao-C-7" style="edgeStyle=orthogonalEdgeStyle;rounded=0;orthogonalLoop=1;jettySize=auto;html=1;exitX=0.5;exitY=1;exitDx=0;exitDy=0;entryX=0.5;entryY=0;entryDx=0;entryDy=0;" edge="1" parent="WIyWlLk6GJQsqaUBKTNV-1" source="WIyWlLk6GJQsqaUBKTNV-7" target="tVau4BeB1wbIVWH6ao-C-2">
          <mxGeometry relative="1" as="geometry" />
        </mxCell>
        <mxCell id="WIyWlLk6GJQsqaUBKTNV-7" value="run_eda_classification.py" style="rounded=1;whiteSpace=wrap;html=1;fontSize=12;glass=0;strokeWidth=1;shadow=0;" parent="WIyWlLk6GJQsqaUBKTNV-1" vertex="1">
          <mxGeometry x="40" y="101" width="180" height="40" as="geometry" />
        </mxCell>
        <mxCell id="tVau4BeB1wbIVWH6ao-C-38" style="edgeStyle=orthogonalEdgeStyle;rounded=0;orthogonalLoop=1;jettySize=auto;html=1;exitX=0;exitY=0.5;exitDx=0;exitDy=0;entryX=1;entryY=0.5;entryDx=0;entryDy=0;fillColor=#f8cecc;strokeColor=#b85450;strokeWidth=4;" edge="1" parent="WIyWlLk6GJQsqaUBKTNV-1" source="WIyWlLk6GJQsqaUBKTNV-12" target="WIyWlLk6GJQsqaUBKTNV-7">
          <mxGeometry relative="1" as="geometry">
            <Array as="points">
              <mxPoint x="480" y="15" />
              <mxPoint x="480" y="121" />
            </Array>
          </mxGeometry>
        </mxCell>
        <mxCell id="tVau4BeB1wbIVWH6ao-C-39" style="edgeStyle=orthogonalEdgeStyle;rounded=0;orthogonalLoop=1;jettySize=auto;html=1;exitX=0;exitY=0.5;exitDx=0;exitDy=0;entryX=1;entryY=0.5;entryDx=0;entryDy=0;fillColor=#f8cecc;strokeColor=#b85450;strokeWidth=4;" edge="1" parent="WIyWlLk6GJQsqaUBKTNV-1" source="WIyWlLk6GJQsqaUBKTNV-12" target="tVau4BeB1wbIVWH6ao-C-12">
          <mxGeometry relative="1" as="geometry">
            <Array as="points">
              <mxPoint x="480" y="15" />
              <mxPoint x="480" y="398" />
            </Array>
          </mxGeometry>
        </mxCell>
        <mxCell id="tVau4BeB1wbIVWH6ao-C-40" style="edgeStyle=orthogonalEdgeStyle;rounded=0;orthogonalLoop=1;jettySize=auto;html=1;entryX=1;entryY=0.5;entryDx=0;entryDy=0;fillColor=#f8cecc;strokeColor=#b85450;strokeWidth=4;" edge="1" parent="WIyWlLk6GJQsqaUBKTNV-1" target="tVau4BeB1wbIVWH6ao-C-19">
          <mxGeometry relative="1" as="geometry">
            <mxPoint x="600" y="15" as="sourcePoint" />
            <Array as="points">
              <mxPoint x="480" y="15" />
              <mxPoint x="480" y="680" />
            </Array>
          </mxGeometry>
        </mxCell>
        <mxCell id="WIyWlLk6GJQsqaUBKTNV-12" value="&lt;b&gt;&lt;u&gt;Data_Analysis&lt;/u&gt;&lt;/b&gt;&lt;div&gt;&lt;br&gt;&lt;/div&gt;&lt;div&gt;data_ingestion.py&lt;br&gt;&lt;/div&gt;&lt;div&gt;data_cleaning.py&lt;/div&gt;&lt;div&gt;data_encoding.py&lt;/div&gt;&lt;div&gt;data_sampling.py&lt;/div&gt;&lt;div&gt;data_visualization.py&lt;/div&gt;" style="rounded=1;whiteSpace=wrap;html=1;fontSize=12;glass=0;strokeWidth=1;shadow=0;fillColor=#f8cecc;strokeColor=#b85450;" parent="WIyWlLk6GJQsqaUBKTNV-1" vertex="1">
          <mxGeometry x="600" y="-45" width="227" height="120" as="geometry" />
        </mxCell>
        <mxCell id="tVau4BeB1wbIVWH6ao-C-2" value="run_classifier.py" style="rounded=1;whiteSpace=wrap;html=1;fontSize=12;glass=0;strokeWidth=1;shadow=0;" vertex="1" parent="WIyWlLk6GJQsqaUBKTNV-1">
          <mxGeometry x="40" y="181" width="180" height="40" as="geometry" />
        </mxCell>
        <mxCell id="tVau4BeB1wbIVWH6ao-C-22" style="edgeStyle=orthogonalEdgeStyle;rounded=0;orthogonalLoop=1;jettySize=auto;html=1;fillColor=#d5e8d4;strokeColor=#82b366;strokeWidth=4;" edge="1" parent="WIyWlLk6GJQsqaUBKTNV-1" source="tVau4BeB1wbIVWH6ao-C-3">
          <mxGeometry relative="1" as="geometry">
            <mxPoint x="220" y="201" as="targetPoint" />
            <Array as="points" />
          </mxGeometry>
        </mxCell>
        <mxCell id="tVau4BeB1wbIVWH6ao-C-3" value="&lt;b&gt;&lt;u&gt;Data_Classification&lt;/u&gt;&lt;/b&gt;&lt;div&gt;&lt;br&gt;&lt;/div&gt;&lt;div&gt;&lt;div&gt;xgboost_classifier.py&lt;/div&gt;&lt;div&gt;ann_tf_classifier.py&lt;/div&gt;&lt;div&gt;classifier.py&lt;/div&gt;&lt;div&gt;decision_tree_classifier.py&lt;/div&gt;&lt;div&gt;knn_classifier.py&lt;/div&gt;&lt;div&gt;logistic_regression.py&lt;/div&gt;&lt;div&gt;random_forest_classifier.py&lt;/div&gt;&lt;div&gt;support_vector_classifier.py&lt;/div&gt;&lt;/div&gt;" style="rounded=1;whiteSpace=wrap;html=1;fontSize=12;glass=0;strokeWidth=1;shadow=0;fillColor=#d5e8d4;strokeColor=#82b366;" vertex="1" parent="WIyWlLk6GJQsqaUBKTNV-1">
          <mxGeometry x="600" y="121" width="227" height="160" as="geometry" />
        </mxCell>
        <mxCell id="tVau4BeB1wbIVWH6ao-C-44" style="edgeStyle=orthogonalEdgeStyle;rounded=0;orthogonalLoop=1;jettySize=auto;html=1;exitX=0;exitY=0.5;exitDx=0;exitDy=0;fillColor=#ffe6cc;strokeColor=#d79b00;strokeWidth=4;" edge="1" parent="WIyWlLk6GJQsqaUBKTNV-1" source="tVau4BeB1wbIVWH6ao-C-8" target="tVau4BeB1wbIVWH6ao-C-13">
          <mxGeometry relative="1" as="geometry" />
        </mxCell>
        <mxCell id="tVau4BeB1wbIVWH6ao-C-8" value="&lt;b&gt;&lt;u&gt;Data_Regression&lt;/u&gt;&lt;/b&gt;&lt;div&gt;&lt;br&gt;&lt;/div&gt;&lt;div&gt;&lt;div&gt;xgboost_regressor.py&lt;/div&gt;&lt;div&gt;ann_tf_&lt;span style=&quot;background-color: initial;&quot;&gt;regressor&lt;/span&gt;&lt;span style=&quot;background-color: initial;&quot;&gt;.py&lt;/span&gt;&lt;/div&gt;&lt;div&gt;&lt;span style=&quot;background-color: initial;&quot;&gt;regressor&lt;/span&gt;.py&lt;/div&gt;&lt;div&gt;decision_tree_regressor.py&lt;/div&gt;&lt;div&gt;knn_regressor.py&lt;/div&gt;&lt;div&gt;logistic_regressor.py&lt;/div&gt;&lt;div&gt;random_forest_regressor.py&lt;/div&gt;&lt;div&gt;support_vector_regressor.py&lt;/div&gt;&lt;/div&gt;" style="rounded=1;whiteSpace=wrap;html=1;fontSize=12;glass=0;strokeWidth=1;shadow=0;fillColor=#ffe6cc;strokeColor=#d79b00;" vertex="1" parent="WIyWlLk6GJQsqaUBKTNV-1">
          <mxGeometry x="600" y="400" width="227" height="160" as="geometry" />
        </mxCell>
        <mxCell id="tVau4BeB1wbIVWH6ao-C-11" style="edgeStyle=orthogonalEdgeStyle;rounded=0;orthogonalLoop=1;jettySize=auto;html=1;exitX=0.5;exitY=1;exitDx=0;exitDy=0;entryX=0.5;entryY=0;entryDx=0;entryDy=0;" edge="1" parent="WIyWlLk6GJQsqaUBKTNV-1" source="tVau4BeB1wbIVWH6ao-C-12" target="tVau4BeB1wbIVWH6ao-C-13">
          <mxGeometry relative="1" as="geometry" />
        </mxCell>
        <mxCell id="tVau4BeB1wbIVWH6ao-C-12" value="run_eda_regression.py" style="rounded=1;whiteSpace=wrap;html=1;fontSize=12;glass=0;strokeWidth=1;shadow=0;" vertex="1" parent="WIyWlLk6GJQsqaUBKTNV-1">
          <mxGeometry x="40" y="378" width="180" height="40" as="geometry" />
        </mxCell>
        <mxCell id="tVau4BeB1wbIVWH6ao-C-13" value="run_regressor.py" style="rounded=1;whiteSpace=wrap;html=1;fontSize=12;glass=0;strokeWidth=1;shadow=0;" vertex="1" parent="WIyWlLk6GJQsqaUBKTNV-1">
          <mxGeometry x="40" y="460" width="180" height="40" as="geometry" />
        </mxCell>
        <mxCell id="tVau4BeB1wbIVWH6ao-C-18" style="edgeStyle=orthogonalEdgeStyle;rounded=0;orthogonalLoop=1;jettySize=auto;html=1;exitX=0.5;exitY=1;exitDx=0;exitDy=0;entryX=0.5;entryY=0;entryDx=0;entryDy=0;" edge="1" parent="WIyWlLk6GJQsqaUBKTNV-1" source="tVau4BeB1wbIVWH6ao-C-19" target="tVau4BeB1wbIVWH6ao-C-20">
          <mxGeometry relative="1" as="geometry" />
        </mxCell>
        <mxCell id="tVau4BeB1wbIVWH6ao-C-19" value="run_eda_clustering.py" style="rounded=1;whiteSpace=wrap;html=1;fontSize=12;glass=0;strokeWidth=1;shadow=0;" vertex="1" parent="WIyWlLk6GJQsqaUBKTNV-1">
          <mxGeometry x="40" y="660" width="180" height="40" as="geometry" />
        </mxCell>
        <mxCell id="tVau4BeB1wbIVWH6ao-C-20" value="run_clustering.py" style="rounded=1;whiteSpace=wrap;html=1;fontSize=12;glass=0;strokeWidth=1;shadow=0;" vertex="1" parent="WIyWlLk6GJQsqaUBKTNV-1">
          <mxGeometry x="40" y="740" width="180" height="40" as="geometry" />
        </mxCell>
        <mxCell id="tVau4BeB1wbIVWH6ao-C-33" style="edgeStyle=orthogonalEdgeStyle;rounded=0;orthogonalLoop=1;jettySize=auto;html=1;exitX=0;exitY=0.5;exitDx=0;exitDy=0;entryX=1;entryY=0.5;entryDx=0;entryDy=0;fillColor=#e1d5e7;strokeColor=#9673a6;strokeWidth=4;" edge="1" parent="WIyWlLk6GJQsqaUBKTNV-1" source="tVau4BeB1wbIVWH6ao-C-32" target="tVau4BeB1wbIVWH6ao-C-20">
          <mxGeometry relative="1" as="geometry">
            <Array as="points">
              <mxPoint x="580" y="760" />
              <mxPoint x="580" y="760" />
            </Array>
          </mxGeometry>
        </mxCell>
        <mxCell id="tVau4BeB1wbIVWH6ao-C-32" value="Data_Clustering&lt;div&gt;&lt;br&gt;&lt;/div&gt;&lt;div&gt;&lt;div&gt;knn_clustering.py&lt;/div&gt;&lt;div&gt;&lt;span style=&quot;background-color: initial;&quot;&gt;mean_shift_clustering.py&lt;/span&gt;&lt;/div&gt;&lt;div&gt;&lt;span style=&quot;background-color: initial;&quot;&gt;hierarchical_clustering&lt;/span&gt;.py&lt;/div&gt;&lt;div&gt;dbscan_clustering.py&lt;/div&gt;&lt;/div&gt;" style="rounded=1;whiteSpace=wrap;html=1;fontSize=12;glass=0;strokeWidth=1;shadow=0;fillColor=#e1d5e7;strokeColor=#9673a6;" vertex="1" parent="WIyWlLk6GJQsqaUBKTNV-1">
          <mxGeometry x="600" y="680" width="227" height="160" as="geometry" />
        </mxCell>
        <mxCell id="tVau4BeB1wbIVWH6ao-C-41" value="main_regression.py" style="text;html=1;align=center;verticalAlign=middle;whiteSpace=wrap;rounded=0;fontStyle=1;fontSize=16;" vertex="1" parent="WIyWlLk6GJQsqaUBKTNV-1">
          <mxGeometry x="60" y="280" width="160" height="30" as="geometry" />
        </mxCell>
        <mxCell id="tVau4BeB1wbIVWH6ao-C-42" value="main_classification.py" style="text;html=1;align=center;verticalAlign=middle;whiteSpace=wrap;rounded=0;fontStyle=1;fontSize=16;" vertex="1" parent="WIyWlLk6GJQsqaUBKTNV-1">
          <mxGeometry x="60" width="160" height="30" as="geometry" />
        </mxCell>
        <mxCell id="tVau4BeB1wbIVWH6ao-C-43" value="main_clustering.py" style="text;html=1;align=center;verticalAlign=middle;whiteSpace=wrap;rounded=0;fontStyle=1;fontSize=16;" vertex="1" parent="WIyWlLk6GJQsqaUBKTNV-1">
          <mxGeometry x="60" y="565" width="160" height="30" as="geometry" />
        </mxCell>
      </root>
    </mxGraphModel>
  </diagram>
</mxfile>
